<?xml version="1.0" encoding="utf-8"?>
<!-- Generator: Adobe Illustrator 22.0.1, SVG Export Plug-In . SVG Version: 6.00 Build 0)  -->
<svg version="1.1" id="Capa_1" xmlns="http://www.w3.org/2000/svg" xmlns:xlink="http://www.w3.org/1999/xlink" x="0px" y="0px"
	 viewBox="0 0 512 512" style="enable-background:new 0 0 512 512;" xml:space="preserve">
<style type="text/css">
	.st0{fill:#F89942;}
	.st1{fill:#0074B1;}
</style>
<path class="st0" d="M503,128.7h-44.7c-2.3-26.5-22.9-47.3-47.9-47.3h-94.7c-25,0-45.6,20.8-47.9,47.3H9c-5,0-9,4-9,9v284.1
	c0,5,4,9,9,9h494c5,0,9-4,9-9V137.6C512,132.7,508,128.7,503,128.7z M18,146.6h258.6c5,0,9-4,9-9v-4.1c0-18.9,13.5-34.2,30.1-34.2
	h94.7c16.6,0,30.1,15.4,30.1,34.2c0,0.7,0.1,1.4,0.2,2.1c-0.2,0.7-0.2,1.3-0.2,2.1c0,5,4,9,9,9H494v93.2H247.8
	c-3.9-24.5-23.6-43.2-47.3-43.2h-94.7c-23.7,0-43.4,18.7-47.3,43.2H18V146.6z M229.4,239.8H76.8c3.5-14.5,15.1-25.3,28.9-25.3h94.7
	C214.3,214.6,225.9,225.3,229.4,239.8z M494,412.7H18v0V257.8H494V412.7z"/>
<path class="st1" d="M256,313.4h197.6c5,0,9-4,9-9c0-5-4-9-9-9H256c-5,0-9,4-9,9C247,309.3,251,313.4,256,313.4z"/>
<path class="st1" d="M256,353.2h197.6c5,0,9-4,9-9c0-5-4-9-9-9H256c-5,0-9,4-9,9C247,349.1,251,353.2,256,353.2z"/>
</svg>
