<?xml version="1.0" encoding="utf-8"?>
<!-- Generator: Adobe Illustrator 22.0.1, SVG Export Plug-In . SVG Version: 6.00 Build 0)  -->
<svg version="1.1" id="Capa_1" xmlns="http://www.w3.org/2000/svg" xmlns:xlink="http://www.w3.org/1999/xlink" x="0px" y="0px"
	 viewBox="0 0 512 512" style="enable-background:new 0 0 512 512;" xml:space="preserve">
<style type="text/css">
	.st0{fill:#81479C;}
	.st1{fill:#A5A5A5;}
	.st2{fill:#486EB5;}
	.st3{fill:#269CFF;}
	.st4{fill:#F04B27;}
</style>
<path class="st0" d="M230.4,0H74c-4.7,0-8.5,3.8-8.5,8.5v494.9c0,4.7,3.8,8.5,8.5,8.5h156.4c4.7,0,8.5-3.8,8.5-8.5V8.5
	C238.9,3.8,235.1,0,230.4,0z M221.9,494.9H82.5V17.1h139.4V494.9z"/>
<path class="st1" d="M98.8,300.1h106.7c4.7,0,8.5-3.8,8.5-8.5V120.9c0-4.7-3.8-8.5-8.5-8.5H98.8c-4.7,0-8.5,3.8-8.5,8.5v170.7
	C90.3,296.3,94.1,300.1,98.8,300.1z M107.4,129.4H197V283h-89.6V129.4z"/>
<path class="st0" d="M152.2,451.6c34.1,0,61.9-27.8,61.9-61.9s-27.8-61.9-61.9-61.9s-61.9,27.8-61.9,61.9
	C90.3,423.8,118.1,451.6,152.2,451.6z M152.2,344.9c24.7,0,44.8,20.1,44.8,44.8c0,24.7-20.1,44.8-44.8,44.8s-44.8-20.1-44.8-44.8
	C107.4,365,127.5,344.9,152.2,344.9z"/>
<path class="st0" d="M180.6,231.8h-56.9c-4.7,0-8.5,3.8-8.5,8.5s3.8,8.5,8.5,8.5h56.9c4.7,0,8.5-3.8,8.5-8.5
	C189.2,235.6,185.3,231.8,180.6,231.8z"/>
<path class="st2" d="M98.8,85.3h106.7c4.7,0,8.5-3.8,8.5-8.5s-3.8-8.5-8.5-8.5H98.8c-4.7,0-8.5,3.8-8.5,8.5S94.1,85.3,98.8,85.3z"/>
<path class="st2" d="M98.8,51.2h106.7c4.7,0,8.5-3.8,8.5-8.5s-3.8-8.5-8.5-8.5H98.8c-4.7,0-8.5,3.8-8.5,8.5S94.1,51.2,98.8,51.2z"/>
<path class="st3" d="M438,0H281.6c-4.7,0-8.5,3.8-8.5,8.5v494.9c0,4.7,3.8,8.5,8.5,8.5H438c4.7,0,8.5-3.8,8.5-8.5V8.5
	C446.6,3.8,442.8,0,438,0z M429.5,494.9H290.1V17.1h139.4V494.9z"/>
<path class="st1" d="M306.5,300.1h106.7c4.7,0,8.5-3.8,8.5-8.5V120.9c0-4.7-3.8-8.5-8.5-8.5H306.5c-4.7,0-8.5,3.8-8.5,8.5v170.7
	C298,296.3,301.8,300.1,306.5,300.1z M315,129.4h89.6V283H315V129.4z"/>
<path class="st3" d="M359.8,451.6c34.1,0,61.9-27.8,61.9-61.9s-27.8-61.9-61.9-61.9s-61.9,27.8-61.9,61.9
	C298,423.8,325.7,451.6,359.8,451.6z M359.8,344.9c24.7,0,44.8,20.1,44.8,44.8c0,24.7-20.1,44.8-44.8,44.8
	c-24.7,0-44.8-20.1-44.8-44.8S335.1,344.9,359.8,344.9z"/>
<path class="st3" d="M388.3,231.8h-56.9c-4.7,0-8.5,3.8-8.5,8.5s3.8,8.5,8.5,8.5h56.9c4.7,0,8.5-3.8,8.5-8.5S393,231.8,388.3,231.8z
	"/>
<path class="st4" d="M306.5,85.3h106.7c4.7,0,8.5-3.8,8.5-8.5s-3.8-8.5-8.5-8.5H306.5c-4.7,0-8.5,3.8-8.5,8.5S301.8,85.3,306.5,85.3
	z"/>
<path class="st4" d="M306.5,51.2h106.7c4.7,0,8.5-3.8,8.5-8.5s-3.8-8.5-8.5-8.5H306.5c-4.7,0-8.5,3.8-8.5,8.5S301.8,51.2,306.5,51.2
	z"/>
</svg>
