<?xml version="1.0" encoding="utf-8"?>
<!-- Generator: Adobe Illustrator 22.0.1, SVG Export Plug-In . SVG Version: 6.00 Build 0)  -->
<svg version="1.1" id="Capa_1" xmlns="http://www.w3.org/2000/svg" xmlns:xlink="http://www.w3.org/1999/xlink" x="0px" y="0px"
	 viewBox="0 0 512 512" style="enable-background:new 0 0 512 512;" xml:space="preserve">
<style type="text/css">
	.st0{fill:#269CFF;}
	.st1{fill:#FFC519;}
	.st2{fill:#568ECA;}
</style>
<path class="st0" d="M503.2,68.9H8.8c-4.8,0-8.8,4-8.8,8.9v356.4c0,4.9,4,8.8,8.8,8.8h494.3c4.9,0,8.8-3.9,8.8-8.8V77.8
	C512,72.9,508.1,68.9,503.2,68.9z M494.3,425.4H17.7V86.6h476.7L494.3,425.4L494.3,425.4z"/>
<path class="st1" d="M51.2,406.1h409.6c4.9,0,8.8-4,8.8-8.8V114.8c0-4.9-4-8.8-8.8-8.8H51.2c-4.9,0-8.8,4-8.8,8.8v282.5
	C42.4,402.1,46.3,406.1,51.2,406.1z M60,123.6h392v264.8H60V123.6z"/>
<path class="st2" d="M156.4,148H87c-4.9,0-8.8,3.9-8.8,8.8v69.4c0,4.9,3.9,8.8,8.8,8.8h69.4c4.9,0,8.8-4,8.8-8.8v-69.4
	C165.2,151.9,161.3,148,156.4,148z M147.5,217.3H95.9v-51.7h51.7v51.7H147.5z"/>
<path class="st2" d="M409.8,262.7H189.2c-4.9,0-8.8,3.9-8.8,8.8s4,8.8,8.8,8.8h220.7c4.9,0,8.8-4,8.8-8.8
	C418.7,266.7,414.7,262.7,409.8,262.7z"/>
<path class="st2" d="M409.8,299.9H189.2c-4.9,0-8.8,4-8.8,8.8c0,4.9,4,8.8,8.8,8.8h220.7c4.9,0,8.8-3.9,8.8-8.8
	C418.7,303.9,414.7,299.9,409.8,299.9z"/>
<path class="st2" d="M309,337.1H189.2c-4.9,0-8.8,4-8.8,8.8s4,8.8,8.8,8.8H309c4.9,0,8.8-4,8.8-8.8S313.9,337.1,309,337.1z"/>
</svg>
