<?xml version="1.0" encoding="utf-8"?>
<!-- Generator: Adobe Illustrator 22.0.1, SVG Export Plug-In . SVG Version: 6.00 Build 0)  -->
<svg version="1.1" id="Capa_1" xmlns="http://www.w3.org/2000/svg" xmlns:xlink="http://www.w3.org/1999/xlink" x="0px" y="0px"
	 viewBox="0 0 512 512" style="enable-background:new 0 0 512 512;" xml:space="preserve">
<style type="text/css">
	.st0{fill:#2495D3;}
	.st1{fill:#8B3694;}
	.st2{fill:#18A84A;}
</style>
<path class="st0" d="M256,0C114.8,0,0,114.8,0,256c0,141.2,114.8,256,256,256s256-114.8,256-256C512,114.8,397.2,0,256,0z
	 M256,495.1C124.1,495.1,16.9,387.9,16.9,256S124.1,16.9,256,16.9S495.1,124.1,495.1,256C495.1,387.9,387.9,495.1,256,495.1z"/>
<path class="st1" d="M264.4,217.4V113.6c0-4.7-3.8-8.4-8.4-8.4s-8.4,3.8-8.4,8.4v103.8c-17.7,3.9-31.1,19.7-31.1,38.6
	c0,11.5,5,21.8,12.9,29l-32.9,56.7c-2.3,4-1,9.2,3.1,11.5c1.3,0.8,2.8,1.1,4.2,1.1c2.9,0,5.7-1.5,7.3-4.2l32.9-56.7
	c3.8,1.2,7.8,2.1,12,2.1c21.8,0,39.5-17.7,39.5-39.5C295.5,237.1,282.2,221.3,264.4,217.4z M256,278.6c-12.5,0-22.6-10.2-22.6-22.6
	s10.2-22.6,22.6-22.6s22.6,10.2,22.6,22.6C278.6,268.5,268.5,278.6,256,278.6z"/>
<path class="st2" d="M464.5,247.6h-13.2C447,146.4,365.6,65,264.4,60.7V47.5c0-4.7-3.8-8.4-8.4-8.4s-8.4,3.8-8.4,8.4v13.2
	C146.4,65,65,146.4,60.7,247.6H47.5c-4.7,0-8.4,3.8-8.4,8.4c0,4.7,3.8,8.4,8.4,8.4h13.2C65,365.6,146.4,447,247.6,451.3v13.2
	c0,4.7,3.8,8.4,8.4,8.4c4.7,0,8.4-3.8,8.4-8.4v-13.2C365.6,447,447,365.6,451.3,264.4h13.2c4.7,0,8.4-3.8,8.4-8.4
	S469.1,247.6,464.5,247.6z M421.7,264.4h12.5c-4.3,91.8-78,165.5-169.8,169.8v-12.5c0-4.7-3.8-8.4-8.4-8.4s-8.4,3.8-8.4,8.4v12.5
	c-91.8-4.3-165.5-78-169.8-169.8h12.5c4.7,0,8.4-3.8,8.4-8.4s-3.8-8.4-8.4-8.4H77.8c4.3-91.8,78-165.5,169.8-169.8v12.5
	c0,4.7,3.8,8.4,8.4,8.4c4.7,0,8.4-3.8,8.4-8.4V77.8c91.8,4.3,165.5,78,169.8,169.8h-12.5c-4.7,0-8.4,3.8-8.4,8.4
	C413.3,260.7,417,264.4,421.7,264.4z"/>
</svg>
