<?xml version="1.0" encoding="utf-8"?>
<!-- Generator: Adobe Illustrator 22.0.1, SVG Export Plug-In . SVG Version: 6.00 Build 0)  -->
<svg version="1.1" id="Capa_1" xmlns="http://www.w3.org/2000/svg" xmlns:xlink="http://www.w3.org/1999/xlink" x="0px" y="0px"
	 viewBox="0 0 512 512" style="enable-background:new 0 0 512 512;" xml:space="preserve">
<style type="text/css">
	.st0{fill:#269CFF;}
	.st1{fill:#119B48;}
	.st2{fill:#FDB635;}
</style>
<path class="st0" d="M411.9,78.6H308.8V50.5c0-27.9-22.7-50.5-50.5-50.5s-50.5,22.7-50.5,50.5v28.1H100.1c-4.4,0-7.9,3.5-7.9,7.9
	v417.5c0,4.4,3.5,7.9,7.9,7.9h311.8c4.4,0,7.9-3.5,7.9-7.9V86.5C419.8,82.2,416.3,78.6,411.9,78.6z M223.6,50.5
	c0-19.1,15.6-34.7,34.7-34.7S293,31.4,293,50.5v36c0,0,0,0,0,0c0,0,0,0,0,0v7.6c0,19.1-15.6,34.7-34.7,34.7s-34.7-15.6-34.7-34.7
	L223.6,50.5L223.6,50.5z M404,496.1L404,496.1H108V94.5h99.8c0.2,27.7,22.8,50.2,50.5,50.2c27.8,0,50.3-22.5,50.5-50.2H404
	L404,496.1L404,496.1z"/>
<path class="st1" d="M148,168.9v205.2c0,4.4,3.5,7.9,7.9,7.9h200.2c4.4,0,7.9-3.5,7.9-7.9V168.9c0-4.4-3.5-7.9-7.9-7.9H155.9
	C151.5,161,148,164.5,148,168.9z M310.6,366.2H202.2v-54.5l26.5-18.4c7.7,5.6,17.1,9,27.3,9c10.4,0,19.9-3.5,27.7-9.3l26.9,18.7
	L310.6,366.2L310.6,366.2z M225.6,256c0-16.8,13.6-30.4,30.4-30.4s30.4,13.6,30.4,30.4s-13.6,30.4-30.4,30.4S225.6,272.8,225.6,256z
	 M163.8,176.8h184.3v189.4h-21.7v-58.7c0-2.6-1.3-5-3.4-6.5l-28.4-19.7c4.8-7.3,7.6-16,7.6-25.3c0-25.5-20.7-46.2-46.2-46.2
	c-25.5,0-46.2,20.7-46.2,46.2c0,9.5,2.9,18.3,7.8,25.7L189.8,301c-2.1,1.5-3.4,3.9-3.4,6.5v58.7h-22.5L163.8,176.8L163.8,176.8z"/>
<path class="st2" d="M324.7,404.3H191.9c-4.4,0-7.9,3.5-7.9,7.9s3.5,7.9,7.9,7.9h132.8c4.4,0,7.9-3.5,7.9-7.9
	C332.6,407.9,329.1,404.3,324.7,404.3z"/>
<path class="st2" d="M322.4,442H189.6c-4.4,0-7.9,3.5-7.9,7.9s3.5,7.9,7.9,7.9h132.8c4.4,0,7.9-3.5,7.9-7.9
	C330.3,445.5,326.8,442,322.4,442z"/>
<path class="st2" d="M258.3,74.7c14.5,0,26.3-11.8,26.3-26.3s-11.8-26.3-26.3-26.3S232,33.9,232,48.4
	C232.1,62.9,243.8,74.7,258.3,74.7z M258.3,38c5.7,0,10.4,4.7,10.4,10.4s-4.7,10.4-10.4,10.4s-10.4-4.7-10.4-10.4
	C247.9,42.7,252.6,38,258.3,38z"/>
</svg>
