<?xml version="1.0" encoding="utf-8"?>
<!-- Generator: Adobe Illustrator 22.0.1, SVG Export Plug-In . SVG Version: 6.00 Build 0)  -->
<svg version="1.1" id="Layer_1" xmlns="http://www.w3.org/2000/svg" xmlns:xlink="http://www.w3.org/1999/xlink" x="0px" y="0px"
	 viewBox="0 0 30 30" style="enable-background:new 0 0 30 30;" xml:space="preserve">
<style type="text/css">
	.st0{fill:#1FB500;enable-background:new    ;}
	.st1{fill:#FFB000;enable-background:new    ;}
	.st2{fill:#A0DB91;enable-background:new    ;}
	.st3{fill:#D1B886;enable-background:new    ;}
</style>
<path class="st0" d="M29.4,0C29.4,0,29.4,0,29.4,0H0.6C0.3,0,0,0.3,0,0.6v11.3c0,0.3,0.3,0.6,0.6,0.6h17.3l5.3,3.9
	c0.1,0.1,0.2,0.1,0.4,0.1c0.1,0,0.2,0,0.3-0.1c0.2-0.1,0.3-0.3,0.3-0.5v-3.4h5.2c0.3,0,0.6-0.3,0.6-0.6c0,0,0,0,0,0V0.6
	C30,0.3,29.7,0,29.4,0z M28.8,11.3L28.8,11.3h-5.2c-0.3,0-0.6,0.3-0.6,0.6c0,0,0,0,0,0v2.8l-4.5-3.3c-0.1-0.1-0.2-0.1-0.4-0.1H1.2
	V1.2h27.6V11.3z"/>
<path class="st1" d="M29.4,17.8C29.4,17.8,29.4,17.8,29.4,17.8H12.1l-5.3-3.9c-0.3-0.2-0.7-0.1-0.9,0.1c-0.1,0.1-0.1,0.2-0.1,0.4
	v3.4H0.6C0.3,17.8,0,18,0,18.4v11C0,29.7,0.3,30,0.6,30h28.8c0.3,0,0.6-0.3,0.6-0.6c0,0,0,0,0,0v-11C30,18,29.7,17.8,29.4,17.8z
	 M1.2,28.8V19h5.2C6.8,19,7,18.7,7,18.4c0,0,0,0,0,0v-2.8l4.5,3.3c0.1,0.1,0.2,0.1,0.4,0.1h16.8v9.8H1.2z"/>
<rect x="3.7" y="2.8" class="st2" width="22.7" height="1.2"/>
<polygon class="st2" points="3.7,5.2 26.3,5.2 26.3,6.4 3.7,6.4 3.7,5.2 "/>
<rect x="3.7" y="7.7" class="st2" width="17.4" height="1.2"/>
<rect x="7.6" y="21.4" class="st3" width="18.7" height="1.2"/>
<polygon class="st3" points="3.7,23.9 26.3,23.9 26.3,25.1 3.7,25.1 3.7,23.9 "/>
<rect x="3.7" y="26.3" class="st3" width="19.6" height="1.2"/>
<rect x="24.8" y="7.7" class="st2" width="1.5" height="1.2"/>
<rect x="22.3" y="7.7" class="st2" width="1.5" height="1.2"/>
<rect x="3.7" y="21.4" class="st3" width="1.5" height="1.2"/>
</svg>
